<mxfile host="app.diagrams.net" agent="Mozilla/5.0 (Windows NT 10.0; Win64; x64; rv:132.0) Gecko/20100101 Firefox/132.0" version="24.8.3">
  <diagram name="Seite-1" id="wQY5KsPMTsWH1tA1Gdz1">
    <mxGraphModel dx="913" dy="437" grid="1" gridSize="10" guides="1" tooltips="1" connect="1" arrows="1" fold="1" page="1" pageScale="1" pageWidth="1654" pageHeight="2336" math="0" shadow="0">
      <root>
        <mxCell id="0" />
        <mxCell id="1" parent="0" />
        <mxCell id="04v_0-utMSh1Fu0-i88t-28" style="rounded=0;orthogonalLoop=1;jettySize=auto;html=1;entryX=0;entryY=1;entryDx=0;entryDy=0;elbow=vertical;" edge="1" parent="1" source="04v_0-utMSh1Fu0-i88t-19" target="04v_0-utMSh1Fu0-i88t-24">
          <mxGeometry relative="1" as="geometry" />
        </mxCell>
        <mxCell id="04v_0-utMSh1Fu0-i88t-19" value="" style="ellipse;" vertex="1" parent="1">
          <mxGeometry x="160" y="158" width="30" height="30" as="geometry" />
        </mxCell>
        <mxCell id="04v_0-utMSh1Fu0-i88t-20" value="" style="fontStyle=1;align=center;verticalAlign=middle;childLayout=stackLayout;horizontal=1;horizontalStack=0;resizeParent=1;resizeParentMax=0;resizeLast=0;marginBottom=0;rounded=1;absoluteArcSize=1;arcSize=22;" vertex="1" parent="1">
          <mxGeometry x="240" y="120" width="200" height="100" as="geometry" />
        </mxCell>
        <mxCell id="04v_0-utMSh1Fu0-i88t-21" value="Search Game 1" style="html=1;align=center;spacing=0;verticalAlign=middle;strokeColor=none;fillColor=none;whiteSpace=wrap;" vertex="1" parent="04v_0-utMSh1Fu0-i88t-20">
          <mxGeometry width="200" height="20" as="geometry" />
        </mxCell>
        <mxCell id="04v_0-utMSh1Fu0-i88t-22" value="" style="line;strokeWidth=0.25;fillColor=none;align=left;verticalAlign=middle;spacingTop=-1;spacingLeft=3;spacingRight=3;rotatable=0;labelPosition=right;points=[];portConstraint=eastwest;" vertex="1" parent="04v_0-utMSh1Fu0-i88t-20">
          <mxGeometry y="20" width="200" height="8" as="geometry" />
        </mxCell>
        <mxCell id="04v_0-utMSh1Fu0-i88t-23" value="" style="html=1;align=left;spacing=0;spacingLeft=10;verticalAlign=middle;strokeColor=none;fillColor=none;whiteSpace=wrap;" vertex="1" parent="04v_0-utMSh1Fu0-i88t-20">
          <mxGeometry y="28" width="200" height="10" as="geometry" />
        </mxCell>
        <mxCell id="04v_0-utMSh1Fu0-i88t-24" value="entry / Spawn Item" style="html=1;align=left;spacing=0;spacingLeft=10;verticalAlign=middle;strokeColor=none;fillColor=none;whiteSpace=wrap;" vertex="1" parent="04v_0-utMSh1Fu0-i88t-20">
          <mxGeometry y="38" width="200" height="14" as="geometry" />
        </mxCell>
        <mxCell id="04v_0-utMSh1Fu0-i88t-25" value="do / &amp;lt;NA&amp;gt;" style="html=1;align=left;spacing=0;spacingLeft=10;verticalAlign=middle;strokeColor=none;fillColor=none;whiteSpace=wrap;" vertex="1" parent="04v_0-utMSh1Fu0-i88t-20">
          <mxGeometry y="52" width="200" height="14" as="geometry" />
        </mxCell>
        <mxCell id="04v_0-utMSh1Fu0-i88t-26" value="exit / Destroy Item" style="html=1;align=left;spacingLeft=10;spacing=0;verticalAlign=middle;strokeColor=none;fillColor=none;whiteSpace=wrap;" vertex="1" parent="04v_0-utMSh1Fu0-i88t-20">
          <mxGeometry y="66" width="200" height="14" as="geometry" />
        </mxCell>
        <mxCell id="04v_0-utMSh1Fu0-i88t-27" value="" style="html=1;align=left;spacing=0;spacingLeft=10;verticalAlign=middle;strokeColor=none;fillColor=none;whiteSpace=wrap;" vertex="1" parent="04v_0-utMSh1Fu0-i88t-20">
          <mxGeometry y="80" width="200" height="20" as="geometry" />
        </mxCell>
        <mxCell id="04v_0-utMSh1Fu0-i88t-40" value="Raycast Hit Item" style="edgeStyle=none;html=1;endArrow=open;endSize=12;strokeWidth=3;verticalAlign=bottom;rounded=0;exitX=1;exitY=0.5;exitDx=0;exitDy=0;entryX=0;entryY=0;entryDx=0;entryDy=90;entryPerimeter=0;" edge="1" parent="1" source="04v_0-utMSh1Fu0-i88t-25" target="04v_0-utMSh1Fu0-i88t-41">
          <mxGeometry width="160" relative="1" as="geometry">
            <mxPoint x="450" y="180" as="sourcePoint" />
            <mxPoint x="560" y="178.9999999999999" as="targetPoint" />
          </mxGeometry>
        </mxCell>
        <mxCell id="04v_0-utMSh1Fu0-i88t-41" value="Upload Game" style="shape=mxgraph.sysml.compState;html=1;align=left;verticalAlign=top;spacingTop=-3;spacingLeft=18;" vertex="1" parent="1">
          <mxGeometry x="560" y="90" width="320" height="270" as="geometry" />
        </mxCell>
        <mxCell id="04v_0-utMSh1Fu0-i88t-43" value="" style="ellipse;" vertex="1" parent="1">
          <mxGeometry x="570" y="170" width="30" height="30" as="geometry" />
        </mxCell>
        <mxCell id="04v_0-utMSh1Fu0-i88t-45" value="" style="shape=sumEllipse;perimeter=ellipsePerimeter;html=1;backgroundOutline=1;" vertex="1" parent="1">
          <mxGeometry x="827" y="310" width="30" height="30" as="geometry" />
        </mxCell>
        <mxCell id="04v_0-utMSh1Fu0-i88t-49" value="&lt;div&gt;entry / Show UI&lt;/div&gt;&lt;div&gt;do / SubState&lt;/div&gt;&lt;div&gt;exit / Hide UI&lt;br&gt;&lt;/div&gt;" style="text;html=1;align=left;verticalAlign=top;whiteSpace=wrap;rounded=0;spacingLeft=8;labelPosition=center;verticalLabelPosition=middle;" vertex="1" parent="1">
          <mxGeometry x="560" y="110" width="320" height="80" as="geometry" />
        </mxCell>
      </root>
    </mxGraphModel>
  </diagram>
</mxfile>
